<?xml version="1.0" encoding="utf-8" ?>
<svg xmlns="http://www.w3.org/2000/svg" xmlns:xlink="http://www.w3.org/1999/xlink" width="32" height="32" viewBox="0 0 32 32">
	<defs>
		<clipPath id="clipPath3209806478">
			<path transform="matrix(1 0 0 1 -0 -0)" d="M0 0L32 0L32 32L0 32L0 0Z" fill-rule="nonzero"/>
		</clipPath>
	</defs>
	<g clip-path="url(#clipPath3209806478)">
		<path transform="matrix(1 0 0 1 12 13)" d="M4 0C6.20914 0 8 1.79086 8 4C8 6.20914 6.20914 8 4 8C1.79086 8 0 6.20914 0 4C0 1.79086 1.79086 0 4 0Z" fill-rule="nonzero" fill="rgb(107, 114, 128)"/>
		<path transform="matrix(1 0 0 1 2 5)" d="M25 4L21.3125 4C21.125 4 20.8925 3.87875 20.7113 3.6875L19.09 1.12875C19.0772 1.10845 19.0636 1.08864 19.0493 1.06935C19.035 1.05005 19.0201 1.03131 19.0044 1.01312C18.4444 0.36 17.6875 0 16.875 0L11.125 0C10.3125 0 9.55562 0.36 8.99562 1.01312C8.97994 1.03131 8.96496 1.05005 8.95066 1.06935C8.93637 1.08865 8.92282 1.10845 8.91 1.12875L7.28875 3.69125C7.15 3.8425 6.955 4.00375 6.75 4.00375L6.75 3.50375C6.75 3.22761 6.65237 2.9919 6.45711 2.79664C6.26184 2.60138 6.02614 2.50375 5.75 2.50375L4.25 2.50375C3.97386 2.50375 3.73816 2.60138 3.54289 2.79664C3.34763 2.99191 3.25 3.22761 3.25 3.50375L3.25 4.00375L3 4.00375C2.17193 4.00461 1.46513 4.29781 0.879593 4.88334C0.294059 5.46888 0.000861327 6.17568 0 7.00375L0 19C0.00086085 19.8281 0.294058 20.5349 0.879593 21.1204C1.46513 21.7059 2.17193 21.9991 3 22L25 22C25.8281 21.9991 26.5349 21.7059 27.1204 21.1204C27.7059 20.5349 27.9991 19.8281 28 19L28 7C27.9991 6.17193 27.7059 5.46513 27.1204 4.87959C26.5349 4.29406 25.8281 4.00086 25 4ZM14 18C12.3431 18 10.9289 17.4142 9.75736 16.2426C8.58579 15.0711 8 13.6569 8 12C8 10.3431 8.58579 8.92893 9.75736 7.75736C10.9289 6.58579 12.3431 6 14 6C15.6569 6 17.0711 6.58579 18.2426 7.75736C19.4142 8.92893 20 10.3431 20 12C19.9981 13.6561 19.4116 15.0696 18.2406 16.2406C17.0696 17.4116 15.6561 17.9981 14 18Z" fill-rule="nonzero" fill="rgb(107, 114, 128)"/>
	</g>
</svg>
