<?xml version="1.0" encoding="utf-8" ?>
<svg xmlns="http://www.w3.org/2000/svg" xmlns:xlink="http://www.w3.org/1999/xlink" width="20" height="20" viewBox="0 0 20 20">
	<defs>
		<clipPath id="clipPath7517442311">
			<path transform="matrix(1 0 0 1 0 0)" d="M0 0L20 0L20 20L0 20L0 0Z" fill-rule="nonzero"/>
		</clipPath>
	</defs>
	<g clip-path="url(#clipPath7517442311)">
		<defs>
			<clipPath id="clipPath7542863144">
				<path transform="matrix(1 0 0 1 -0 -0)" d="M0 0L20 0L20 20L0 20L0 0Z" fill-rule="nonzero"/>
			</clipPath>
		</defs>
		<g clip-path="url(#clipPath7542863144)">
			<path transform="matrix(1 0 0 1 3.125 1.25)" d="M13.5938 7.5L8.125 7.5C7.60723 7.5 7.16529 7.31694 6.79917 6.95082C6.43306 6.58471 6.25 6.14277 6.25 5.625L6.25 0.15625C6.25 0.113103 6.23474 0.0762742 6.20423 0.0457644C6.17372 0.0152548 6.1369 0 6.09375 0L2.5 0C1.80964 0 1.22039 0.244078 0.732233 0.732233C0.244078 1.22039 0 1.80964 0 2.5L0 15C0 15.6904 0.244078 16.2796 0.732233 16.7678C1.22039 17.2559 1.80964 17.5 2.5 17.5L11.25 17.5C11.9404 17.5 12.5296 17.2559 13.0178 16.7678C13.5059 16.2796 13.75 15.6904 13.75 15L13.75 7.65625C13.75 7.6131 13.7347 7.57627 13.7042 7.54576C13.6737 7.51525 13.6369 7.5 13.5938 7.5ZM10 13.75L3.75 13.75C3.57741 13.75 3.4301 13.689 3.30806 13.5669C3.18602 13.4449 3.125 13.2976 3.125 13.125C3.125 12.9524 3.18602 12.8051 3.30806 12.6831C3.4301 12.561 3.57741 12.5 3.75 12.5L10 12.5C10.1726 12.5 10.3199 12.561 10.4419 12.6831C10.564 12.8051 10.625 12.9524 10.625 13.125C10.625 13.2976 10.564 13.4449 10.4419 13.5669C10.3199 13.689 10.1726 13.75 10 13.75ZM10 10.625L3.75 10.625C3.57741 10.625 3.4301 10.564 3.30806 10.4419C3.18602 10.3199 3.125 10.1726 3.125 10C3.125 9.82741 3.18602 9.6801 3.30806 9.55806C3.4301 9.43602 3.57741 9.375 3.75 9.375L10 9.375C10.1726 9.375 10.3199 9.43602 10.4419 9.55806C10.564 9.6801 10.625 9.82741 10.625 10C10.625 10.1726 10.564 10.3199 10.4419 10.4419C10.3199 10.564 10.1726 10.625 10 10.625Z" fill-rule="nonzero" fill="rgb(0, 0, 0)"/>
			<path transform="matrix(1 0 0 1 10.625 1.72644)" d="M5.75078 5.64036L0.133203 0.0227779C0.122035 0.0116752 0.108726 0.00459666 0.0932765 0.00154242C0.077827 -0.00151182 0.0628257 -3.01003e-05 0.0482726 0.00598758C0.0337195 0.0120053 0.0220525 0.0215507 0.0132716 0.0346239C0.00449061 0.0476971 6.67572e-05 0.0621078 0 0.077856L0 5.14856C0 5.32115 0.0610193 5.46846 0.183058 5.5905C0.305096 5.71254 0.45241 5.77356 0.625 5.77356L5.6957 5.77356C5.71145 5.77349 5.72586 5.76907 5.73894 5.76029C5.75201 5.75151 5.76156 5.73984 5.76757 5.72529C5.77359 5.71073 5.77507 5.69573 5.77202 5.68028C5.76896 5.66483 5.76188 5.65152 5.75078 5.64036Z" fill-rule="nonzero" fill="rgb(0, 0, 0)"/>
		</g>
	</g>
</svg>
