<svg height="32" viewBox="0 0 32 32" width="32" xmlns="http://www.w3.org/2000/svg"><path d="m24 24v4h-16v-4h-2v4a2 2 0 0 0 2 2h16a2 2 0 0 0 2-2v-4z"/><path d="m21 21-1.414-1.414-2.586 2.586v-8.172h-2v8.172l-2.586-2.586-1.414 1.414 5 5z"/><path d="m28 4v-2h-6v10h2v-4h3v-2h-3v-2z"/><path d="m17 12h-4v-10h4a3.0033 3.0033 0 0 1 3 3v4a3.0033 3.0033 0 0 1 -3 3zm-2-2h2a1.0011 1.0011 0 0 0 1-1v-4a1.0011 1.0011 0 0 0 -1-1h-2z"/><path d="m9 2h-5v10h2v-3h3a2.0027 2.0027 0 0 0 2-2v-3a2.0023 2.0023 0 0 0 -2-2zm-3 5v-3h3l.001 3z"/><path d="m0 0h32v32h-32z" fill="none"/></svg>