<?xml version="1.0" encoding="utf-8" ?>
<svg xmlns="http://www.w3.org/2000/svg" xmlns:xlink="http://www.w3.org/1999/xlink" width="96" height="96" viewBox="0 0 96 96">
	<defs>
		<clipPath id="clipPath7770362148">
			<path transform="matrix(1 0 0 1 -0 -0)" d="M0 0L96 0L96 96L0 96L0 0Z" fill-rule="nonzero"/>
		</clipPath>
	</defs>
	<g clip-path="url(#clipPath7770362148)">
		<path transform="matrix(1 0 0 1 6 9)" d="M65.7131 -3Q67.6422 -3 69.4863 -2.48297Q71.3031 -1.97362 72.8935 -1.00349Q74.4998 -0.0237172 75.7396 1.34309Q77.0201 2.75482 77.8025 4.46202L85.9206 22.1868Q87.261 25.1093 86.9393 28.2486Q86.6349 31.2182 84.9169 33.7457Q83.3685 36.0236 81 37.456L81 75L84 75C85.6568 75 87 76.3432 87 78C87 79.6568 85.6568 81 84 81L0 81C-1.65684 81 -3 79.6568 -3 78C-3 76.3432 -1.65684 75 0 75L3 75L3 37.4582Q0.631491 36.0264 -0.916859 33.7485Q-2.63497 31.2209 -2.93926 28.2506Q-3.2609 25.111 -1.92128 22.1883L6.19776 4.46139Q6.97986 2.75482 8.2604 1.34309Q9.5002 -0.0237238 11.1065 -1.00349Q12.6969 -1.97362 14.5137 -2.48297Q16.3578 -3 18.2869 -3L65.7131 -3ZM9 39.3456L9 75L45 75L45 49.5Q45 47.9713 45.5579 46.6245Q46.1157 45.2777 47.1967 44.1967Q48.2777 43.1157 49.6245 42.5579Q50.9713 42 52.5 42L64.5 42Q66.0287 42 67.3755 42.5579Q68.7223 43.1157 69.8033 44.1967Q70.8843 45.2777 71.4421 46.6245Q72 47.9713 72 49.5L72 75L75 75L75 39.3454Q74.7213 39.3648 74.439 39.3735Q74.3923 39.375 74.3456 39.375L73.98 39.375Q71.2488 39.375 68.7442 38.4019Q66.3044 37.4539 64.4129 35.7162Q63.8265 35.1775 63.3203 34.5882Q62.8138 35.1776 62.2272 35.7164Q60.3354 37.454 57.8953 38.4019Q55.3905 39.375 52.6594 39.375Q49.916 39.375 47.3725 38.3327Q44.9596 37.3439 43.0658 35.5615Q42.5319 35.059 42.0644 34.5173Q41.534 35.1445 40.9138 35.7149Q39.0238 37.4534 36.585 38.4016Q34.0814 39.375 31.35 39.375Q28.6067 39.375 26.063 38.3328Q23.6499 37.344 21.7557 35.5617Q21.1854 35.0251 20.6908 34.4437Q20.1947 35.0273 19.6223 35.5656Q17.7285 37.3469 15.3149 38.3346Q12.7724 39.375 10.0294 39.375L9.65438 39.375Q9.60846 39.375 9.56257 39.3736Q9.27942 39.3649 9 39.3456ZM66 75L66 49.5Q66 49.1648 65.8989 48.9206Q65.7977 48.6764 65.5607 48.4393Q65.3236 48.2023 65.0794 48.1011Q64.8352 48 64.5 48L52.5 48Q52.1648 48 51.9206 48.1011Q51.6764 48.2023 51.4393 48.4393Q51.2023 48.6764 51.1011 48.9206Q51 49.1648 51 49.5L51 75L66 75ZM63.3206 23.5819Q63.468 23.5819 63.6147 23.5963Q63.7614 23.6108 63.9059 23.6395Q64.0504 23.6683 64.1915 23.7111Q64.3325 23.7538 64.4687 23.8102Q64.6048 23.8666 64.7348 23.9361Q64.8648 24.0056 64.9873 24.0875Q65.1099 24.1693 65.2238 24.2628Q65.3377 24.3563 65.4419 24.4606Q65.5462 24.5648 65.6397 24.6787Q65.7332 24.7926 65.815 24.9152Q65.8969 25.0377 65.9664 25.1677Q66.0359 25.2977 66.0923 25.4338Q66.1487 25.57 66.1915 25.711Q66.2342 25.8521 66.263 25.9966Q66.2917 26.1412 66.3062 26.2878Q66.3206 26.4345 66.3206 26.5819Q66.3206 27.9172 66.8834 29.1397Q67.4405 30.35 68.4721 31.2977Q69.5311 32.2706 70.9172 32.8092Q72.3735 33.375 73.98 33.375L74.2954 33.375Q76.1179 33.309 77.6346 32.4723Q79.0632 31.6843 79.9547 30.3727Q80.8207 29.0987 80.9705 27.6369Q81.1255 26.1243 80.4669 24.6881L72.3475 6.96048Q71.5403 5.19916 69.7691 4.1188Q68.8858 3.58001 67.8666 3.29426Q66.817 3 65.7131 3L18.2869 3Q17.183 3 16.1334 3.29426Q15.1142 3.58001 14.2309 4.1188Q12.4597 5.19916 11.6522 6.96111L3.53378 24.6867Q2.87441 26.1253 3.0295 27.6391Q3.17932 29.1016 4.0453 30.3755Q4.93659 31.6868 6.36472 32.4741Q7.88127 33.3101 9.70378 33.375L10.0294 33.375Q11.5922 33.375 13.0425 32.7815Q14.4274 32.2148 15.5115 31.1951Q16.5611 30.2079 17.1326 28.9832Q17.6887 27.7913 17.6887 26.5819Q17.6887 26.4345 17.7032 26.2878Q17.7176 26.1412 17.7464 25.9966Q17.7751 25.8521 17.8179 25.711Q17.8607 25.57 17.9171 25.4338Q17.9735 25.2977 18.043 25.1677Q18.1125 25.0377 18.1943 24.9152Q18.2762 24.7926 18.3697 24.6787Q18.4632 24.5648 18.5674 24.4606Q18.6716 24.3563 18.7856 24.2628Q18.8995 24.1693 19.022 24.0875Q19.1446 24.0056 19.2746 23.9361Q19.4045 23.8666 19.5407 23.8102Q19.6769 23.7538 19.8179 23.7111Q19.9589 23.6683 20.1035 23.6395Q20.248 23.6108 20.3947 23.5963Q20.5414 23.5819 20.6887 23.5819Q20.8361 23.5819 20.9828 23.5963Q21.1295 23.6108 21.274 23.6395Q21.4186 23.6683 21.5596 23.7111Q21.7006 23.7538 21.8368 23.8102Q21.973 23.8666 22.1029 23.9361Q22.2329 24.0056 22.3555 24.0875Q22.478 24.1693 22.5919 24.2628Q22.7059 24.3563 22.8101 24.4606Q22.9143 24.5648 23.0078 24.6787Q23.1013 24.7926 23.1832 24.9152Q23.265 25.0377 23.3345 25.1677Q23.404 25.2977 23.4604 25.4338Q23.5168 25.57 23.5596 25.711Q23.6024 25.8521 23.6311 25.9966Q23.6599 26.1412 23.6743 26.2878Q23.6887 26.4345 23.6887 26.5819Q23.6887 27.7875 24.2449 28.9785Q24.817 30.2036 25.8674 31.192Q26.9526 32.2132 28.3378 32.7807Q29.7882 33.375 31.35 33.375Q32.9561 33.375 34.4107 32.8094Q35.7948 32.2713 36.8518 31.299Q37.8817 30.3517 38.438 29.1414Q39 27.9184 39 26.5819Q39 26.4345 39.0144 26.2878Q39.0289 26.1412 39.0576 25.9966Q39.0864 25.8521 39.1292 25.711Q39.172 25.57 39.2284 25.4338Q39.2848 25.2977 39.3542 25.1677Q39.4237 25.0377 39.5056 24.9152Q39.5875 24.7926 39.681 24.6787Q39.7745 24.5648 39.8787 24.4606Q39.9829 24.3563 40.0968 24.2628Q40.2107 24.1693 40.3333 24.0875Q40.4558 24.0056 40.5858 23.9361Q40.7158 23.8666 40.8519 23.8102Q40.9881 23.7538 41.1291 23.7111Q41.2702 23.6683 41.4147 23.6395Q41.5593 23.6108 41.7059 23.5963Q41.8526 23.5819 42 23.5819Q42.1474 23.5819 42.2941 23.5963Q42.4407 23.6108 42.5853 23.6395Q42.7298 23.6683 42.8708 23.7111Q43.0119 23.7538 43.148 23.8102Q43.2842 23.8666 43.4142 23.9361Q43.5442 24.0056 43.6667 24.0875Q43.7892 24.1693 43.9032 24.2628Q44.0171 24.3563 44.1213 24.4606Q44.2255 24.5648 44.319 24.6787Q44.4125 24.7926 44.4944 24.9152Q44.5763 25.0377 44.6458 25.1677Q44.7152 25.2977 44.7716 25.4338Q44.828 25.57 44.8708 25.711Q44.9136 25.8521 44.9424 25.9966Q44.9711 26.1412 44.9856 26.2878Q45 26.4345 45 26.5819Q45 27.7878 45.556 28.9788Q46.1279 30.204 47.178 31.1923Q48.2628 32.2133 49.6476 32.7808Q51.0977 33.375 52.6594 33.375Q54.266 33.375 55.7226 32.8091Q57.1091 32.2705 58.1685 31.2975Q59.2005 30.3496 59.7578 29.1393Q60.3206 27.917 60.3206 26.5819Q60.3206 26.4345 60.3351 26.2878Q60.3495 26.1412 60.3783 25.9966Q60.407 25.8521 60.4498 25.711Q60.4926 25.57 60.549 25.4338Q60.6054 25.2977 60.6749 25.1677Q60.7443 25.0377 60.8262 24.9152Q60.9081 24.7926 61.0016 24.6787Q61.0951 24.5648 61.1993 24.4606Q61.3035 24.3563 61.4174 24.2628Q61.5314 24.1693 61.6539 24.0875Q61.7765 24.0056 61.9064 23.9361Q62.0364 23.8666 62.1726 23.8102Q62.3087 23.7538 62.4498 23.7111Q62.5908 23.6683 62.7354 23.6395Q62.8799 23.6108 63.0266 23.5963Q63.1732 23.5819 63.3206 23.5819ZM19.5 42L34.5 42Q36.0287 42 37.3755 42.5579Q38.7223 43.1157 39.8033 44.1967Q40.8843 45.2777 41.4421 46.6245Q42 47.9713 42 49.5L42 66Q42 66.1474 41.9856 66.2941Q41.9711 66.4407 41.9424 66.5853Q41.9136 66.7298 41.8708 66.8708Q41.828 67.0119 41.7716 67.148Q41.7152 67.2842 41.6458 67.4142Q41.5763 67.5442 41.4944 67.6667Q41.4125 67.7892 41.319 67.9032Q41.2255 68.0171 41.1213 68.1213Q41.0171 68.2255 40.9032 68.319Q40.7893 68.4125 40.6667 68.4944Q40.5442 68.5763 40.4142 68.6458Q40.2842 68.7152 40.148 68.7716Q40.0119 68.828 39.8708 68.8708Q39.7298 68.9136 39.5853 68.9424Q39.4407 68.9711 39.2941 68.9856Q39.1474 69 39 69L15 69Q14.8526 69 14.7059 68.9856Q14.5593 68.9711 14.4147 68.9424Q14.2702 68.9136 14.1291 68.8708Q13.9881 68.828 13.8519 68.7716Q13.7158 68.7152 13.5858 68.6458Q13.4558 68.5763 13.3333 68.4944Q13.2107 68.4125 13.0968 68.319Q12.9829 68.2255 12.8787 68.1213Q12.7745 68.0171 12.681 67.9032Q12.5875 67.7892 12.5056 67.6667Q12.4237 67.5442 12.3542 67.4142Q12.2848 67.2842 12.2284 67.148Q12.172 67.0119 12.1292 66.8709Q12.0864 66.7298 12.0576 66.5853Q12.0289 66.4407 12.0144 66.2941Q12 66.1474 12 66L12 49.5Q12 47.9713 12.5579 46.6245Q13.1157 45.2777 14.1967 44.1967Q15.2777 43.1157 16.6245 42.5579Q17.9713 42 19.5 42ZM19.5 48Q19.1648 48 18.9206 48.1011Q18.6764 48.2023 18.4393 48.4393Q18.2023 48.6764 18.1011 48.9206Q18 49.1648 18 49.5L18 63L36 63L36 49.5Q36 49.1648 35.8989 48.9206Q35.7977 48.6764 35.5607 48.4393Q35.3236 48.2023 35.0794 48.1011Q34.8352 48 34.5 48L19.5 48Z" fill-rule="evenodd" fill="rgb(37, 99, 235)"/>
	</g>
</svg>
