<?xml version="1.0" encoding="utf-8" ?>
<svg xmlns="http://www.w3.org/2000/svg" xmlns:xlink="http://www.w3.org/1999/xlink" width="20" height="20" viewBox="0 0 20 20">
	<defs>
		<clipPath id="clipPath3896748911">
			<path transform="matrix(1 0 0 1 0 0)" d="M0 0L20 0L20 20L0 20L0 0Z" fill-rule="nonzero"/>
		</clipPath>
	</defs>
	<g clip-path="url(#clipPath3896748911)">
		<defs>
			<clipPath id="clipPath2952793363">
				<path transform="matrix(1 0 0 1 -0 -0)" d="M0 0L20 0L20 20L0 20L0 0Z" fill-rule="nonzero"/>
			</clipPath>
		</defs>
		<g clip-path="url(#clipPath2952793363)">
			<path transform="matrix(1 0 0 1 6.25 5.625)" d="M-0.9375 0C-0.9375 0.517762 -0.517762 0.9375 0 0.9375L11.25 0.9375C11.7678 0.9375 12.1875 0.517762 12.1875 0C12.1875 -0.517762 11.7678 -0.9375 11.25 -0.9375L0 -0.9375C-0.517762 -0.9375 -0.9375 -0.517762 -0.9375 0ZM-0.9375 4.375C-0.9375 4.89276 -0.517762 5.3125 0 5.3125L11.25 5.3125C11.7678 5.3125 12.1875 4.89276 12.1875 4.375C12.1875 3.85724 11.7678 3.4375 11.25 3.4375L0 3.4375C-0.517762 3.4375 -0.9375 3.85724 -0.9375 4.375ZM-0.9375 8.75C-0.9375 9.26776 -0.517762 9.6875 0 9.6875L11.25 9.6875C11.7678 9.6875 12.1875 9.26776 12.1875 8.75C12.1875 8.23224 11.7678 7.8125 11.25 7.8125L0 7.8125C-0.517762 7.8125 -0.9375 8.23224 -0.9375 8.75Z" fill-rule="evenodd" fill="rgb(55, 65, 81)"/>
			<path transform="matrix(1 0 0 1 2.5 5)" d="M0.625 -0.625Q1.14277 -0.625 1.50888 -0.258883Q1.875 0.107233 1.875 0.625Q1.875 1.14277 1.50888 1.50888Q1.14277 1.875 0.625 1.875Q0.107233 1.875 -0.258883 1.50888Q-0.625 1.14277 -0.625 0.625Q-0.625 0.107233 -0.258883 -0.258883Q0.107233 -0.625 0.625 -0.625L0.625 -0.625ZM0.625 0.625Q0.625 0.625 0.625 0.625Q0.625 0.625 0.625 0.625L0.625 0.625L0.625 0.625L0.625 0.625Z" fill-rule="nonzero" fill="rgb(55, 65, 81)"/>
			<path transform="matrix(1 0 0 1 2.5 9.375)" d="M0.625 -0.625Q1.14277 -0.625 1.50888 -0.258883Q1.875 0.107233 1.875 0.625Q1.875 1.14277 1.50888 1.50888Q1.14277 1.875 0.625 1.875Q0.107233 1.875 -0.258883 1.50888Q-0.625 1.14277 -0.625 0.625Q-0.625 0.107233 -0.258883 -0.258883Q0.107233 -0.625 0.625 -0.625L0.625 -0.625ZM0.625 0.625Q0.625 0.625 0.625 0.625Q0.625 0.625 0.625 0.625L0.625 0.625L0.625 0.625L0.625 0.625Z" fill-rule="nonzero" fill="rgb(55, 65, 81)"/>
			<path transform="matrix(1 0 0 1 2.5 13.75)" d="M0.625 -0.625Q1.14277 -0.625 1.50888 -0.258883Q1.875 0.107233 1.875 0.625Q1.875 1.14277 1.50888 1.50888Q1.14277 1.875 0.625 1.875Q0.107233 1.875 -0.258883 1.50888Q-0.625 1.14277 -0.625 0.625Q-0.625 0.107233 -0.258883 -0.258883Q0.107233 -0.625 0.625 -0.625L0.625 -0.625ZM0.625 0.625Q0.625 0.625 0.625 0.625Q0.625 0.625 0.625 0.625L0.625 0.625L0.625 0.625L0.625 0.625Z" fill-rule="nonzero" fill="rgb(55, 65, 81)"/>
		</g>
	</g>
</svg>
